<svg xmlns="http://www.w3.org/2000/svg" id="nato" viewBox="0 0 120 96">
  <style>
    .st0{fill:#2C2C2D;} .st1{fill-rule:evenodd;clip-rule:evenodd;fill:#FFFFFF;} .st2{fill-rule:evenodd;clip-rule:evenodd;fill:#5084C8;} .st3{fill-rule:evenodd;clip-rule:evenodd;fill:#223D87;} .st4{fill-rule:evenodd;clip-rule:evenodd;}
  </style>
  <path id="payoff" d="M2.1 80.1V68.8h.8l3.6 9v-9h.9v11.4h-.9l-3.6-8.8v8.8h-.8zM9 76.8V72c0-.4 0-.8.1-1.1l.3-.9c.1-.3.3-.5.5-.8.2-.2.5-.4.8-.5.3-.1.7-.2 1.1-.2.4 0 .8.1 1.1.2.3.1.6.3.8.5.2.2.4.5.5.8l.3.9c.1.3.1.7.1 1.1v4.8c0 2.3-1 3.5-2.9 3.5S9 79.1 9 76.8zm4.8.2v-5.2c0-1.6-.6-2.4-1.9-2.4s-1.9.8-1.9 2.4V77c0 1.6.6 2.4 1.9 2.4s1.9-.7 1.9-2.4zm2.7 3.1V68.8h3c.4 0 .7.1 1 .2.3.1.5.2.7.4.2.2.3.4.4.6.1.3.2.5.2.8 0 .3.1.6.1.9 0 1.4-.5 2.4-1.6 2.8l1.8 5.7H21l-1.7-5.5h-1.9v5.5h-.9zm1-6.3h2c.3 0 .5-.1.7-.2.2-.1.3-.3.4-.5.1-.2.2-.4.2-.7s.2-.4.2-.7V71c0-.2-.1-.4-.1-.6-.1-.2-.1-.3-.3-.5-.1-.1-.2-.2-.4-.3-.2-.1-.4-.1-.6-.1h-2v4.3zm7 6.3V69.6h-2.2v-.8h5.4v.8h-2.2v10.5h-1zm4 0V68.8h1v5.1H33v-5.1h1v11.4h-1v-5.5h-3.5v5.5h-1zm10.5 0h-1l2.2-11.4h1.3l2.2 11.4h-1l-.6-3h-2.6l-.5 3zm.7-3.6H42l-1.2-6.7-1.1 6.7zm6.1 3.6V69.6h-2.2v-.8H49v.8h-2.2v10.5h-1zm3.9 0V68.8h1v10.5h3.2v.8h-4.2zm5.5 0h-1l2.2-11.4h1.3l2.2 11.4h-1l-.6-3h-2.6l-.5 3zm.7-3.6h2.4L57 69.8l-1.1 6.7zm5.3 3.6V68.8h.8l3.6 9v-9h.9v11.4h-.8l-3.6-8.8v8.8h-.9zm8.2 0V69.6h-2.2v-.8h5.4v.8h-2.2v10.5h-1zm3.9 0V68.8h1v11.4h-1zm2.7-3.3V72c0-.4 0-.8.1-1.1.1-.3.1-.6.3-.9.1-.3.3-.6.5-.8.2-.2.5-.4.8-.5.3-.1.7-.2 1.1-.2 1.8 0 2.7 1.2 2.7 3.5v.5h-1v-.7c0-.4 0-.7-.1-1-.1-.3-.1-.5-.3-.8-.1-.2-.3-.4-.5-.5-.2-.1-.5-.2-.8-.2-.3 0-.5 0-.8.1-.2.1-.4.2-.5.3-.1.1-.2.3-.3.5-.1.2-.1.4-.2.7V77c0 .4 0 .7.1 1 .1.3.1.5.3.8.1.2.3.4.6.5.2.1.5.2.9.2.3 0 .6-.1.8-.2.2-.1.4-.3.5-.5.1-.2.2-.5.3-.8.1-.3.1-.6.1-1v-.8h1v.6c0 .4 0 .8-.1 1.1 0 .3-.1.6-.3.9-.1.3-.3.6-.5.8-.2.2-.5.4-.8.5-.3.1-.7.2-1.1.2-.4 0-.8-.1-1.2-.2s-.6-.3-.8-.5c-.2-.2-.4-.5-.5-.8l-.3-.9c.1-.3 0-.7 0-1.1zm10.8 3.3V69.6h-2.2v-.8H90v.8h-2.2v10.5h-1zm3.9 0V68.8h3c.4 0 .7.1 1 .2.3.1.5.2.7.4.2.2.3.4.4.6.1.3.2.5.2.8 0 .3.1.6.1.9 0 1.4-.5 2.4-1.6 2.8l1.8 5.7h-1.1l-1.7-5.5h-1.9v5.5h-.9zm1-6.3h2c.3 0 .5-.1.7-.2.2-.1.3-.3.4-.5.1-.2.2-.4.2-.7 0-.2.1-.5.1-.8v-.7c0-.2-.1-.4-.1-.6-.1-.2-.1-.3-.3-.5-.1-.1-.2-.2-.4-.3-.2-.1-.4-.1-.6-.1h-2v4.4zm6.1 6.3V68.8h4v.8h-3v4.3h2.1v.8h-2.1v4.7h3v.8h-4zm5.6 0h-1l2.2-11.4h1.3l2.2 11.4h-1l-.6-3h-2.6l-.5 3zm.7-3.6h2.4l-1.2-6.7-1.2 6.7zm6 3.6V69.6h-2.2v-.8h5.4v.8h-2.2v10.5h-1zm5.5 0v-3.5l-2.5-7.8h1c.1.3.2.8.4 1.3.2.6.3 1.2.5 1.8.2.6.3 1.2.5 1.7s.3 1 .4 1.3l.2.5c.3-1 .6-2.2 1-3.4.4-1.3.7-2.3.9-3.2h1l-2.4 7.8v3.5h-1zM1.8 91.2v-4.8c0-.4 0-.8.1-1.1l.3-.9c.1-.3.3-.5.5-.8.2-.2.5-.4.8-.5.4 0 .8-.1 1.2-.1s.8.1 1.1.2c.3.1.6.3.8.5.2.2.4.5.5.8l.3.9c.1.3.1.7.1 1.1v4.8c0 2.3-1 3.5-2.9 3.5s-2.8-1.2-2.8-3.6zm4.8.3v-5.2c0-1.6-.6-2.4-1.9-2.4s-1.9.8-1.9 2.4v5.2c0 1.6.6 2.4 1.9 2.4s1.9-.8 1.9-2.4zm2.8 3V83.2h3c.4 0 .7.1 1 .2.3.1.5.2.7.4.2.2.3.4.4.6.1.3.2.5.2.8 0 .3.1.6.1.9 0 1.4-.5 2.4-1.6 2.8l1.8 5.7h-1.1L12.3 89h-1.9v5.5h-1zm1-6.3h2c.3 0 .5-.1.7-.2.2-.1.3-.3.4-.5.1-.2.2-.4.2-.7 0-.2.1-.5.1-.8v-.7c0-.2-.1-.4-.1-.6-.1-.2-.1-.3-.3-.5-.1-.1-.2-.2-.4-.3-.2.1-.4.1-.6.1h-2v4.2zm5.8 3.2v-4.8c0-2.3 1-3.5 3-3.5.3 0 .6 0 .9.1.3.1.5.2.7.3.2.1.3.3.5.5l.3.6c.1.2.1.4.2.7 0 .3.1.5.1.8v.9h-1v-1.6c0-.3-.1-.5-.1-.6-.1-.1-.2-.3-.3-.4-.1-.2-.3-.3-.5-.3-.2-.1-.4-.1-.7-.1-.4 0-.7.1-.9.2-.3.1-.5.3-.6.5-.1.2-.2.5-.3.7s-.1.5-.1.9V92c0 .3 0 .6.1.8.1.2.1.5.3.7s.3.4.6.5c.3.1.6.2 1 .2.3 0 .6-.1.9-.2.2-.1.4-.3.6-.5.1-.2.2-.4.3-.7.1-.2.1-.5.1-.8v-1.9h-1.4v-.8h2.4v5.4h-.4l-.3-1.1c-.1.4-.4.7-.8.9-.4.2-.8.3-1.3.3-.3 0-.6 0-.8-.1-.3-.1-.5-.1-.7-.2-.2-.1-.4-.2-.5-.3l-.4-.4c-.1-.1-.2-.3-.2-.5-.1-.2-.1-.3-.2-.5 0-.1-.1-.3-.1-.5v-.4c-.4-.3-.4-.4-.4-.5zm7.7 3.1h-1l2.2-11.4h1.3l2.2 11.4h-1l-.6-3h-2.6l-.5 3zm.7-3.6H27l-1.2-6.7-1.2 6.7zm5.4 3.6V83.2h.8l3.6 9v-9h.9v11.4h-.8l-3.6-8.8v8.8H30zm7.1 0V83.2h1v11.4h-1zm2.4 0v-.9l4-9.6h-3.6v-.8h4.6v.9l-4 9.6h4v.8h-5zm6.6 0h-1l2.2-11.4h1.3l2.2 11.4h-1l-.6-3h-2.6l-.5 3zm.7-3.6h2.4L48 84.2l-1.2 6.7zm6.1 3.6V84h-2.2v-.8h5.4v.8h-2.2v10.5h-1zm4 0V83.2h1v11.4h-1zm2.7-3.3v-4.8c0-.4 0-.8.1-1.1l.3-.9c.1-.3.3-.5.5-.8.2-.2.5-.4.8-.5.3-.1.7-.2 1.1-.2.4 0 .8.1 1.1.2.3.1.6.3.8.5.2.2.4.5.5.8l.3.9c.1.3.1.7.1 1.1v4.8c0 2.3-1 3.5-2.9 3.5-1.7 0-2.7-1.1-2.7-3.5zm4.8.3v-5.2c0-1.6-.6-2.4-1.9-2.4-1.3 0-1.9.8-1.9 2.4v5.2c0 1.6.6 2.4 1.9 2.4 1.2 0 1.9-.8 1.9-2.4zm2.7 3V83.2h.8l3.6 9v-9h.9v11.4h-.8L68 85.7v8.8h-.9z" class="st0"/>
  <g id="logo">
    <path id="white" d="M118.8 59.8H1.1V1h117.7v58.8z" class="st1"/>
    <path id="azure" d="M8.5 30.9H1.1v29h29v-7.4h.5V30.4L27 34.3l3.2 14.8-4.5-14-15.2-4.7h-2v.5zm6.5 2.4l.7.2c1.2 5.9 5.8 10.5 11.7 11.7l.2.7c-6.4-1.1-11.4-6.2-12.6-12.6zM59.9 1H31v7.4h-.4v22.1l3.6-3.9L31 11.8l4.5 14 15.2 4.7h2V30h7.4V1h-.2zM33.4 14.9c6.4 1.2 11.5 6.3 12.6 12.7l-.7-.2c-1.2-5.9-5.8-10.5-11.7-11.7l-.2-.8z" class="st2"/>
    <path id="blue" d="M30.1 8.4V1h-29v29h7.4v.4h22.1l-3.9-3.6L11.8 30l14-4.5 4.7-15.2v20.1-22h-.4zm-2.4 6.5l-.2.7c-5.9 1.2-10.5 5.8-11.7 11.7l-.8.2c1.2-6.4 6.2-11.4 12.7-12.6zm24.9 16v-.4H30.5l3.9 3.6 14.8-3.2-14 4.5-4.7 15.2v2h.5V60h29V31h-7.4v-.1zM46 33.3c-1.2 6.4-6.2 11.5-12.7 12.6l.2-.7C39.4 44 44 39.4 45.2 33.5l.8-.2z" class="st3"/>
    <path id="black" d="M111.7 19.2c-.1.1-1.8 2.7-5.5 2.7-1.9 0-3.5-.6-4.7-1.8-1.1-1.1-1.8-2.8-1.8-4.5 0-1.6.6-3.1 1.7-4.3 1.2-1.3 3-1.9 5.1-1.9 1.8 0 3.4.7 4.6 1.8 1.1 1.1 1.7 2.6 1.7 4.3 0 1-.1 2.1-1.1 3.7zm-12.3-6.3c-.3 0-.3-.2-.5-.8-.3-1.2-.7-1.2-2.3-1.2h-1.5V14c0 2.6 0 5.9.1 6.5 0 .2.5.4.8.4l.4.1c.5.1.7.1.8.3.1.2.1.3-.1.5-.1.1-.3.1-1.2 0h-4.7c-.1 0-.2-.1-.2-.2s0-.2.1-.3c.1-.2.2-.2.6-.2.1 0 .3 0 .5-.1.3-.1.9-.3.9-.4.1-.4.1-5.9.1-8.5v-1H91c-.6 0-1 .2-1.5.8-.1.2-.4.6-.7.9-.1.2-.4.3-.5.2-.1 0-.2-.1-.2-.4l.8-3c0-.1.1-.3.3-.3.2 0 .3.1.4.4l.1.1c.1.2.3.4 1.2.4h7.5s.1 0 .1-.1c.3-.6.5-.9.7-.9.2 0 .4.1.4.5v3c.1.1 0 .2-.2.2zm-8.8 8.4c0 .1-.1.2-.1.2-.2.1-.4.1-1 0h-3.4c-.1-.1-.2-.3-.1-.4.1-.2.2-.2.5-.2.1 0 .3 0 .5-.1.1 0 .4-.1.4-.2s-.5-1.3-1.1-3l-.5-1.2c-1.9-.1-3.2-.1-3.6 0l-.5 1.4-.2.4-.8 2.3v.2c.1.1.2.1.4.2.2 0 .3 0 .4.1.3 0 .5 0 .6.3v.2c0 .1-.1.1-.2.1h-4.1c-.1 0-.2-.1-.2-.3 0-.1 0-.2.1-.3.2-.1.3-.1.6-.2.2 0 .3 0 .6-.1.2 0 .7-.2.8-.5.1-.2 1.1-2.8 2.1-5.4v-.1c.9-2.3 1.9-4.9 2.1-5.6l.6-.1c.1.1 1.3 3.1 2.9 7.3.8 2 1.5 3.8 1.5 4 .1.2.5.3.7.3.5.1.6.1.8.3.2.3.2.4.2.4zm-13.2.5l-.1.1h-.4c-1.6-1.6-5.3-5.6-7.5-8L68 12.3c0 1.5 0 7.2.1 8.2 0 .2.4.2.5.3.2 0 .4.1.5.1.3 0 .5.1.6.2.1.2.1.3 0 .4-.1.1-.3.1-1 .1h-3.2c-.1 0-.1-.1-.1-.2s0-.2.1-.3c.1-.2.2-.2.6-.2.1 0 .3 0 .5-.1.3 0 .6-.2.6-.3.1-.5.1-6.4 0-8.7 0-.6-.1-.8-.1-.9-.2-.5-1-.6-1.4-.6h-.2l-.1-.5 2.6-.2c.2.1.6.4 1 .8l7.6 8.4c-.1-2.1-.3-6.7-.3-8.1 0-.2-.4-.3-.5-.3-.3 0-.4-.1-.5-.1-.3 0-.4 0-.6-.2-.1-.2-.1-.3 0-.4.1-.1.3-.1 1-.1h3.2c.1 0 .1.1.1.2s0 .2-.1.3c-.1.2-.3.2-.6.2-.1 0-.3 0-.5.1-.3.1-.6.2-.6.3 0 .1.3 8.7.3 9.4l-.1 1.7zM59.9 1v29h29v-3.2h.9V30h29V1H59.9zm22.7 14.4c.4 0 1.6.1 2.9 0L84 11.5l-1.4 3.9zm23.6-5.2c-1.2 0-2.3.4-3 1.2-1.1 1.1-1.6 2.9-1.6 4.2 0 1.3.4 3.1 1.7 4.4.8.8 1.7 1.2 2.8 1.2 1.6 0 2.8-.5 3.6-1.5.7-.9 1.1-2.3 1.1-3.9 0-1.8-.5-3.2-1.4-4.2-1.2-1.3-2.5-1.4-3.2-1.4zm7.1 29.5c-.1.2-.2.2-.6.2-.1 0-.3 0-.5.1-.3.1-.6.2-.6.3 0 .1.3 8.7.3 9.4v1.5l-.5.2c-1.7-1.6-5.3-5.6-7.5-8l-1.4-1.6c0 1.5 0 7.2.1 8.2 0 .2.4.2.5.3.3 0 .4.1.5.1.3 0 .4 0 .6.2.1.2.1.3 0 .4-.1.1-.3.1-1 .1h-3.3c-.1 0-.1-.1-.1-.2s0-.2.1-.3c.1-.2.2-.2.6-.2.2 0 .3 0 .5-.1.3 0 .6-.2.6-.3.1-.6 0-8.6 0-8.7 0-.6-.1-.8-.1-.9-.2-.5-1-.6-1.4-.6h-.2l-.1-.5 2.6-.2c.2.1.6.4 1 .8l7.6 8.4c-.1-2-.3-6.7-.3-8.1 0-.2-.4-.3-.5-.3-.3 0-.4-.1-.5-.1-.3 0-.4 0-.6-.2-.2-.2-.1-.4 0-.4.1-.1.3-.1 1-.1h3.2c.1 0 .1.1.1.2.1.2 0 .3-.1.4zM99.7 50.8c0 .1-.1.2-.1.2-.2.1-.4.1-1 0h-3.4c-.1-.1-.2-.2-.1-.4s.2-.2.5-.2c.1 0 .3 0 .5-.1.1 0 .4-.1.4-.2s-.4-1.3-1.1-3l-.4-1.2c-1.9-.1-3.2-.1-3.6 0l-.5 1.5-1 2.6v.2c.1.1.2.1.4.2.2 0 .3 0 .4.1.3 0 .5 0 .6.3v.2c0 .1-.1.1-.2.1h-4.2c-.1 0-.2-.1-.2-.3 0-.1 0-.2.1-.3.2-.1.3-.1.6-.2.2 0 .4 0 .6-.1.2 0 .7-.2.8-.5.1-.2 1.2-3 2.1-5.5.8-2.2 1.8-4.9 2.1-5.6l.6-.1c.1.1 1.3 3.1 2.9 7.4.8 2 1.4 3.8 1.5 4 .1.2.5.3.7.3.5.1.6.1.8.3.2.1.2.2.2.3zm-13.1.2c-.1.1-.3.1-1.2 0h-4.7c-.1 0-.2-.1-.2-.2s0-.2.1-.3c.1-.2.3-.2.6-.2.2 0 .3 0 .5-.1.3-.1.9-.3.9-.4.1-.4.1-5.9.1-8.6v-.9h-2.2c-.6 0-1 .2-1.5.8-.1.2-.4.6-.7.9-.1.2-.4.3-.5.2-.1 0-.2-.1-.2-.4l.8-3c0-.1.1-.3.3-.3.2 0 .3.1.4.4l.1.1c.1.2.3.4 1.2.4h7.5s.1 0 .1-.1c.3-.6.5-.9.7-.9.2 0 .4.1.4.5v3c0 .2-.1.3-.3.3-.3 0-.3-.2-.5-.8-.3-1.2-.7-1.2-2.3-1.2h-1.5v3.1c0 2.7 0 5.9.1 6.5 0 .2.5.4.8.4.2 0 .4 0 .5.1.4 0 .6.1.8.3.1.2 0 .3-.1.4zm-9.4-2.4c-.1.1-1.8 2.7-5.5 2.7-1.9 0-3.5-.6-4.7-1.8-1.1-1.1-1.8-2.8-1.8-4.5 0-1.6.6-3.1 1.7-4.3 1.2-1.3 3-1.9 5.1-1.9 1.8 0 3.4.7 4.6 1.8 1.1 1.1 1.7 2.6 1.7 4.3 0 1.1-.1 2.2-1.1 3.7zm12.6-17.7v3.2h-.9v-3.2h-29v29h58.8v-29H89.8zm2 14c.4 0 1.6.1 2.9 0L93.2 41l-1.4 3.9zm-20.1-5.3c-1.2 0-2.3.4-3 1.2-1.1 1.1-1.6 2.9-1.6 4.2 0 1.3.4 3.1 1.7 4.4.8.8 1.7 1.2 2.8 1.2 1.6 0 2.8-.5 3.6-1.5.7-.9 1.1-2.3 1.1-3.9 0-1.8-.5-3.2-1.4-4.2-1.2-1.2-2.5-1.4-3.2-1.4z" class="st4"/>
  </g>
</svg>
